<?xml version="1.0" encoding="UTF-8"?>
<svg id="Calque_2" data-name="Calque 2" xmlns="http://www.w3.org/2000/svg" viewBox="0 0 338.98 339">
  <defs>
    <style>
      .cls-1 {
        fill: #fff;
      }

      .cls-2 {
        fill: #0080ce;
      }

      .cls-3 {
        fill: #0096ff;
      }
    </style>
  </defs>
  <g id="Calque_1-2" data-name="Calque 1">
    <g>
      <rect class="cls-2" x="274.98" width="64" height="18"/>
      <rect class="cls-2" x="-23" y="298" width="64" height="18" transform="translate(-298 316) rotate(-90)"/>
      <polygon class="cls-3" points="223.02 0 0 223.02 0 338.98 338.98 0 223.02 0"/>
      <g>
        <path class="cls-1" d="M43.74,257.08l-19.16-19.16,3.5-3.5,22.5,4.49-13.49-13.49,3.5-3.5,19.16,19.16-3.5,3.5-22.47-4.46,13.47,13.47-3.5,3.5Z"/>
        <path class="cls-1" d="M70.31,231.16c-1.37,1.37-2.87,2.29-4.52,2.76-1.64,.47-3.29,.48-4.95,.03-1.66-.46-3.18-1.38-4.57-2.76s-2.36-2.95-2.86-4.64c-.5-1.69-.53-3.36-.1-5.02,.44-1.66,1.37-3.2,2.79-4.63,1.33-1.33,2.8-2.22,4.41-2.65,1.61-.44,3.2-.44,4.79,0,1.59,.44,3,1.28,4.24,2.52,.2,.2,.41,.42,.62,.64,.21,.23,.42,.47,.64,.73l-10.32,10.32c1.13,.99,2.33,1.45,3.6,1.38,1.27-.06,2.38-.57,3.33-1.52,.71-.71,1.15-1.47,1.31-2.27,.16-.8,.11-1.58-.16-2.33l3.56-3.56c.6,1.11,.96,2.32,1.07,3.61,.11,1.3-.07,2.58-.53,3.85-.47,1.27-1.25,2.45-2.34,3.54Zm-11.36-11.41c-.86,.86-1.37,1.86-1.55,3-.17,1.14,.14,2.29,.94,3.46l6.76-6.76c-.95-.84-1.99-1.22-3.12-1.15-1.13,.07-2.14,.56-3.04,1.45Z"/>
        <path class="cls-1" d="M81.86,218.95l-17.54-9.61,3.48-3.48,12.13,7.42-7.03-12.51,3.89-3.89,12.51,7.03-7.39-12.15,3.48-3.48,9.58,17.57-3.64,3.64-13.06-7.25,7.25,13.06-3.64,3.64Z"/>
        <path class="cls-1" d="M112.68,188.79c-1.17,1.17-2.31,1.94-3.44,2.31-1.12,.37-2.18,.43-3.16,.18-.99-.25-1.85-.76-2.6-1.51-1.26-1.26-1.79-2.77-1.59-4.54,.2-1.77,1.29-3.64,3.26-5.61l3.45-3.45-.33-.33c-.93-.93-1.88-1.35-2.85-1.26-.97,.09-1.84,.53-2.63,1.31-.71,.71-1.16,1.5-1.36,2.37-.19,.87-.02,1.69,.51,2.48l-3.42,3.42c-.89-1.08-1.42-2.27-1.57-3.57-.15-1.3,.03-2.61,.55-3.91,.52-1.3,1.35-2.52,2.48-3.65,1.93-1.93,3.94-2.97,6.02-3.12,2.08-.15,4.01,.67,5.78,2.44l8.35,8.35-2.98,2.98-2.52-1.86c.33,1.13,.37,2.29,.12,3.49-.25,1.2-.94,2.36-2.07,3.49Zm-1.94-3.53c1-1,1.46-2.11,1.35-3.33-.1-1.21-.56-2.38-1.38-3.49l-2.98,2.98c-.93,.93-1.43,1.77-1.49,2.5-.06,.74,.15,1.35,.64,1.85,.53,.53,1.14,.74,1.83,.63,.69-.11,1.37-.49,2.03-1.15Z"/>
        <path class="cls-1" d="M123.47,177.35l-13.58-13.58,3.09-3.09,2.57,2.03c-.38-1.22-.41-2.47-.1-3.74,.32-1.27,1.02-2.44,2.09-3.52,1.68-1.68,3.51-2.45,5.5-2.33,1.99,.13,4.01,1.21,6.05,3.26l7.66,7.66-3.5,3.5-7.34-7.34c-1.17-1.17-2.3-1.82-3.39-1.97-1.09-.15-2.14,.28-3.15,1.29s-1.45,2.14-1.38,3.46c.06,1.32,.72,2.61,1.96,3.85l7.01,7.01-3.5,3.5Z"/>
        <path class="cls-1" d="M146.68,154.8c-1.28,1.28-2.73,2.11-4.35,2.49-1.62,.38-3.27,.33-4.93-.16-1.66-.49-3.18-1.42-4.54-2.79s-2.29-2.88-2.78-4.53c-.48-1.65-.53-3.28-.14-4.9,.39-1.61,1.23-3.06,2.5-4.34,1.02-1.02,2.11-1.72,3.26-2.11,1.15-.38,2.31-.46,3.48-.25l-7.99-7.99,3.5-3.5,19.71,19.71-3.12,3.12-2.33-1.56c.16,1.04,.11,2.15-.15,3.33-.27,1.18-.97,2.34-2.12,3.49Zm-2.33-3.8c1.13-1.13,1.68-2.44,1.64-3.91-.04-1.48-.65-2.81-1.83-4s-2.52-1.8-4-1.83c-1.48-.04-2.78,.51-3.91,1.64s-1.66,2.41-1.64,3.89c.02,1.48,.62,2.81,1.81,4s2.53,1.8,4.02,1.83c1.5,.04,2.8-.5,3.91-1.61Z"/>
        <path class="cls-1" d="M168.13,132.68l-18.56-8.59,3.67-3.67,13.71,6.82-6.82-13.71,3.67-3.67,8.57,18.58-4.24,4.24Z"/>
        <path class="cls-1" d="M185.87,115.6c-1.37,1.37-2.87,2.29-4.52,2.76-1.64,.47-3.29,.48-4.95,.03-1.66-.46-3.18-1.38-4.57-2.76s-2.36-2.95-2.86-4.64c-.5-1.69-.53-3.36-.1-5.02,.44-1.66,1.37-3.2,2.79-4.63,1.33-1.33,2.8-2.22,4.41-2.65,1.61-.44,3.2-.44,4.79,0s3,1.28,4.24,2.52c.2,.2,.41,.42,.62,.64,.21,.23,.42,.47,.64,.72l-10.32,10.32c1.13,.99,2.33,1.45,3.6,1.38,1.27-.06,2.38-.57,3.33-1.52,.71-.71,1.15-1.47,1.31-2.27,.16-.8,.11-1.58-.16-2.33l3.56-3.56c.6,1.11,.96,2.32,1.07,3.61,.11,1.3-.07,2.58-.53,3.85-.47,1.27-1.24,2.45-2.34,3.54Zm-11.36-11.41c-.86,.86-1.37,1.86-1.55,3-.17,1.14,.14,2.29,.94,3.46l6.76-6.76c-.95-.84-1.99-1.22-3.12-1.15-1.13,.07-2.14,.56-3.04,1.45Z"/>
        <path class="cls-1" d="M195.31,105.5l-13.58-13.58,3.12-3.12,2.87,2.22c-.38-1.37-.41-2.74-.08-4.11,.33-1.37,1.07-2.63,2.22-3.78l3.7,3.7-.99,.99c-.77,.77-1.33,1.57-1.7,2.41-.36,.84-.42,1.72-.18,2.64,.25,.92,.89,1.9,1.93,2.94l6.19,6.19-3.5,3.5Z"/>
        <path class="cls-1" d="M192.36,77.09c-.64,.64-1.35,.97-2.15,1-.79,.03-1.48-.25-2.07-.83s-.86-1.27-.82-2.05c.04-.78,.37-1.5,1.01-2.13s1.35-.98,2.13-1.01c.78-.04,1.47,.24,2.05,.82s.86,1.27,.83,2.07c-.03,.79-.36,1.51-1,2.15Zm13.93,17.44l-13.58-13.58,3.5-3.5,13.58,13.58-3.5,3.5Z"/>
        <path class="cls-1" d="M214.09,86.73l-10.65-10.65-1.86,1.86-2.93-2.93,1.86-1.86-1.59-1.59c-1.64-1.64-2.39-3.22-2.26-4.75,.14-1.52,.92-3,2.34-4.42l1.51-1.51,2.98,2.98-.96,.96c-.6,.6-.91,1.15-.93,1.64-.02,.49,.26,1.02,.82,1.59l1.59,1.59,8.76-8.76,13.58,13.58-3.5,3.5-10.65-10.65-5.26,5.26,10.65,10.65-3.5,3.5Zm-4.98-26.06c-.64,.64-1.35,.97-2.15,1-.79,.03-1.48-.25-2.07-.83s-.86-1.27-.82-2.05c.04-.78,.37-1.5,1.01-2.13s1.35-.98,2.13-1.01c.78-.04,1.47,.24,2.05,.82s.86,1.27,.83,2.07c-.03,.79-.36,1.51-1,2.15Z"/>
        <path class="cls-1" d="M236.97,64.5c-1.37,1.37-2.87,2.29-4.52,2.76-1.64,.47-3.29,.48-4.95,.03-1.66-.46-3.18-1.38-4.57-2.76s-2.36-2.95-2.86-4.64c-.5-1.69-.53-3.36-.1-5.02,.44-1.66,1.37-3.2,2.79-4.63,1.33-1.33,2.8-2.22,4.41-2.65,1.61-.44,3.2-.44,4.79,0s3,1.28,4.24,2.52c.2,.2,.41,.42,.62,.64,.21,.23,.42,.47,.64,.72l-10.32,10.32c1.13,.99,2.33,1.45,3.6,1.38,1.27-.06,2.38-.57,3.33-1.52,.71-.71,1.15-1.47,1.31-2.27,.16-.8,.11-1.58-.16-2.33l3.56-3.56c.6,1.11,.96,2.32,1.07,3.61,.11,1.3-.07,2.58-.53,3.85-.47,1.27-1.24,2.45-2.34,3.54Zm-11.36-11.41c-.86,.86-1.37,1.86-1.55,3-.17,1.14,.14,2.29,.94,3.46l6.76-6.76c-.95-.84-1.99-1.22-3.12-1.15-1.13,.07-2.14,.56-3.04,1.45Z"/>
        <path class="cls-1" d="M252.98,48.49c-1.28,1.28-2.73,2.11-4.35,2.49-1.62,.38-3.27,.33-4.93-.16-1.66-.49-3.18-1.42-4.54-2.79s-2.29-2.88-2.78-4.53c-.48-1.65-.53-3.28-.14-4.9,.39-1.61,1.23-3.06,2.5-4.34,1.02-1.02,2.11-1.72,3.26-2.11,1.15-.38,2.31-.47,3.48-.25l-7.99-7.99,3.5-3.5,19.71,19.71-3.12,3.12-2.33-1.56c.16,1.04,.11,2.15-.15,3.33-.27,1.18-.97,2.34-2.12,3.49Zm-2.33-3.8c1.13-1.13,1.68-2.44,1.64-3.91-.04-1.48-.65-2.81-1.83-4s-2.52-1.8-4-1.83c-1.48-.04-2.78,.51-3.91,1.64s-1.66,2.41-1.64,3.89c.02,1.48,.62,2.81,1.81,4s2.53,1.8,4.02,1.83c1.5,.04,2.8-.5,3.91-1.61Z"/>
      </g>
    </g>
  </g>
</svg>