<?xml version="1.0" encoding="UTF-8"?>
<svg id="Calque_2" data-name="Calque 2" xmlns="http://www.w3.org/2000/svg" viewBox="0 0 338.98 339">
  <defs>
    <style>
      .cls-1 {
        fill: #fff;
      }

      .cls-2 {
        fill: #0080ce;
      }

      .cls-3 {
        fill: #0096ff;
      }
    </style>
  </defs>
  <g id="Calque_1-2" data-name="Calque 1">
    <g>
      <rect class="cls-2" x="274.98" width="64" height="18"/>
      <rect class="cls-2" x="-23" y="298" width="64" height="18" transform="translate(-298 316) rotate(-90)"/>
      <polygon class="cls-3" points="223.02 0 0 223.02 0 338.98 338.98 0 223.02 0"/>
      <g>
        <path class="cls-1" d="M39.01,262.36l-18.35-18.35,3.36-3.36,21.55,4.3-12.92-12.92,3.36-3.36,18.35,18.35-3.36,3.36-21.52-4.27,12.9,12.9-3.36,3.36Z"/>
        <path class="cls-1" d="M64.38,237.62c-1.26,1.26-2.68,2.1-4.26,2.53-1.58,.43-3.18,.42-4.78-.01-1.61-.44-3.08-1.33-4.43-2.67s-2.23-2.83-2.66-4.44c-.43-1.62-.43-3.21,0-4.8,.43-1.58,1.27-3,2.53-4.26s2.65-2.08,4.23-2.5c1.58-.43,3.18-.42,4.78,.01,1.61,.44,3.08,1.33,4.43,2.67s2.24,2.82,2.67,4.43c.44,1.61,.44,3.21,0,4.8-.44,1.59-1.28,3.01-2.52,4.25Zm-2.91-2.91c.87-.87,1.31-1.96,1.3-3.26,0-1.3-.66-2.6-1.95-3.89s-2.59-1.94-3.89-1.95c-1.3,0-2.38,.42-3.24,1.27s-1.33,1.98-1.31,3.28c.02,1.29,.67,2.59,1.97,3.88s2.59,1.95,3.88,1.97c1.29,.02,2.38-.41,3.25-1.28Z"/>
        <path class="cls-1" d="M78.9,223.1c-1.63,1.63-3.39,2.37-5.28,2.24-1.9-.13-3.82-1.18-5.78-3.13l-7.34-7.34,3.33-3.33,7.02,7.02c1.12,1.12,2.2,1.75,3.25,1.89,1.05,.14,2.06-.28,3.04-1.26,.93-.93,1.36-2.02,1.3-3.29-.06-1.27-.69-2.49-1.87-3.68l-6.71-6.71,3.36-3.36,13,13-2.96,2.96-2.46-1.94c.37,1.17,.4,2.36,.09,3.58-.31,1.21-.97,2.33-1.98,3.34Z"/>
        <path class="cls-1" d="M93.16,208.21l-17.77-8.23,3.51-3.51,13.13,6.53-6.53-13.13,3.51-3.51,8.2,17.8-4.06,4.06Z"/>
        <path class="cls-1" d="M110.15,191.85c-1.31,1.31-2.75,2.19-4.32,2.65-1.57,.45-3.15,.46-4.74,.03-1.59-.44-3.05-1.32-4.38-2.65s-2.26-2.83-2.74-4.44c-.48-1.62-.51-3.22-.09-4.81,.42-1.59,1.31-3.07,2.67-4.43,1.27-1.27,2.68-2.12,4.22-2.54,1.54-.42,3.07-.42,4.59,0,1.52,.42,2.87,1.22,4.06,2.41,.19,.19,.39,.4,.59,.62,.2,.22,.41,.45,.62,.69l-9.88,9.88c1.08,.94,2.23,1.38,3.45,1.32s2.28-.55,3.18-1.45c.68-.68,1.1-1.41,1.26-2.18,.16-.77,.11-1.51-.16-2.23l3.41-3.41c.58,1.07,.92,2.22,1.02,3.46,.1,1.24-.07,2.47-.51,3.68-.45,1.21-1.19,2.35-2.24,3.39Zm-10.88-10.93c-.82,.82-1.32,1.78-1.48,2.87s.14,2.2,.9,3.32l6.47-6.47c-.91-.8-1.9-1.17-2.99-1.1-1.08,.07-2.05,.53-2.91,1.39Z"/>
        <path class="cls-1" d="M123.99,178.01c-1.12,1.12-2.22,1.86-3.29,2.22-1.07,.36-2.08,.42-3.03,.17s-1.77-.73-2.49-1.44c-1.21-1.21-1.71-2.66-1.52-4.35,.19-1.69,1.23-3.49,3.12-5.37l3.3-3.3-.31-.31c-.89-.89-1.8-1.29-2.73-1.21-.93,.09-1.76,.51-2.52,1.26-.68,.68-1.11,1.44-1.3,2.27-.18,.83-.02,1.62,.49,2.37l-3.28,3.28c-.86-1.03-1.36-2.17-1.51-3.42-.15-1.25,.03-2.5,.52-3.75,.5-1.25,1.29-2.41,2.37-3.5,1.85-1.85,3.77-2.85,5.77-2.99,1.99-.14,3.84,.64,5.53,2.33l7.99,7.99-2.86,2.86-2.41-1.78c.31,1.08,.35,2.2,.12,3.34-.24,1.15-.9,2.26-1.98,3.34Zm-1.86-3.38c.96-.96,1.39-2.02,1.3-3.18-.1-1.16-.54-2.28-1.32-3.34l-2.86,2.86c-.89,.89-1.37,1.69-1.43,2.4-.06,.71,.14,1.3,.62,1.77,.51,.51,1.09,.71,1.76,.6,.66-.1,1.31-.47,1.94-1.1Z"/>
        <path class="cls-1" d="M139.51,162.49c-1.63,1.63-3.39,2.37-5.28,2.24-1.9-.13-3.82-1.18-5.78-3.13l-7.34-7.34,3.33-3.33,7.02,7.02c1.12,1.12,2.2,1.75,3.25,1.89,1.05,.14,2.06-.28,3.04-1.26,.93-.93,1.36-2.02,1.3-3.29-.06-1.27-.69-2.49-1.87-3.68l-6.71-6.71,3.35-3.35,13,13-2.96,2.96-2.46-1.94c.37,1.17,.4,2.36,.09,3.58-.31,1.21-.97,2.33-1.98,3.34Z"/>
        <path class="cls-1" d="M163.12,138.88c-1.31,1.31-2.75,2.19-4.32,2.65s-3.15,.46-4.74,.03c-1.59-.44-3.05-1.32-4.38-2.65s-2.26-2.83-2.74-4.44c-.48-1.62-.51-3.22-.09-4.81,.42-1.59,1.31-3.07,2.67-4.43,1.28-1.28,2.68-2.12,4.22-2.54,1.54-.42,3.07-.42,4.59,0,1.52,.42,2.87,1.22,4.06,2.41,.19,.19,.39,.4,.59,.62,.2,.22,.41,.45,.62,.69l-9.88,9.88c1.08,.94,2.23,1.39,3.45,1.32s2.28-.55,3.19-1.45c.68-.68,1.1-1.41,1.26-2.18,.16-.77,.11-1.51-.16-2.23l3.41-3.41c.58,1.07,.92,2.22,1.02,3.46,.1,1.24-.07,2.47-.51,3.68-.45,1.21-1.19,2.35-2.24,3.39Zm-10.88-10.93c-.82,.82-1.31,1.78-1.48,2.87s.13,2.2,.9,3.32l6.47-6.47c-.91-.8-1.9-1.17-2.99-1.1-1.08,.07-2.05,.53-2.91,1.39Z"/>
        <path class="cls-1" d="M177.72,123.65c-1.36,1.36-2.79,2.12-4.27,2.28-1.49,.16-3.08-.61-4.77-2.31l-5.66-5.66-2.23,2.23-2.8-2.8,2.23-2.23-3.09-3.88,2.96-2.96,3.49,3.49,3.51-3.51,2.8,2.8-3.51,3.51,5.69,5.69c.63,.63,1.2,.93,1.7,.89,.51-.03,1.09-.38,1.76-1.05l1.63-1.63,2.86,2.86-2.28,2.28Z"/>
        <path class="cls-1" d="M192.71,108.66l-17.77-8.23,3.51-3.51,13.13,6.53-6.53-13.13,3.51-3.51,8.2,17.8-4.06,4.06Z"/>
        <path class="cls-1" d="M209.7,92.3c-1.31,1.31-2.75,2.19-4.32,2.65s-3.15,.46-4.74,.03c-1.59-.44-3.05-1.32-4.38-2.65s-2.26-2.83-2.74-4.44c-.48-1.62-.51-3.22-.09-4.81,.42-1.59,1.31-3.07,2.67-4.43,1.28-1.28,2.68-2.12,4.22-2.54,1.54-.42,3.07-.42,4.59,0,1.52,.42,2.87,1.22,4.06,2.41,.19,.19,.39,.4,.59,.62,.2,.22,.41,.45,.62,.69l-9.88,9.88c1.08,.94,2.23,1.39,3.45,1.32s2.28-.55,3.19-1.45c.68-.68,1.1-1.41,1.26-2.18,.16-.77,.11-1.51-.16-2.23l3.41-3.41c.58,1.07,.92,2.22,1.02,3.46,.1,1.24-.07,2.47-.51,3.68-.45,1.21-1.19,2.35-2.24,3.39Zm-10.88-10.93c-.82,.82-1.31,1.78-1.48,2.87s.13,2.2,.9,3.32l6.47-6.47c-.91-.8-1.9-1.17-2.99-1.1-1.08,.07-2.05,.53-2.91,1.39Zm-4.4-2.52l-2.36-2.36,2.73-9.12,2.73,2.73-3.09,8.75Z"/>
        <path class="cls-1" d="M218.74,82.63l-13-13,2.99-2.99,2.75,2.12c-.37-1.31-.39-2.62-.08-3.93,.31-1.31,1.02-2.52,2.12-3.62l3.54,3.54-.94,.94c-.73,.73-1.28,1.5-1.63,2.31-.35,.8-.41,1.65-.17,2.53,.24,.88,.85,1.82,1.85,2.82l5.92,5.92-3.36,3.36Z"/>
        <path class="cls-1" d="M215.91,55.42c-.61,.61-1.3,.93-2.06,.96-.76,.03-1.42-.24-1.98-.8s-.82-1.21-.79-1.97c.03-.75,.36-1.43,.97-2.04s1.29-.93,2.04-.97,1.41,.23,1.97,.79,.83,1.22,.8,1.98c-.03,.76-.35,1.45-.96,2.06Zm13.34,16.7l-13-13,3.36-3.36,13,13-3.36,3.36Z"/>
        <path class="cls-1" d="M236.72,64.65l-10.2-10.2-1.78,1.78-2.8-2.8,1.78-1.78-1.52-1.52c-1.57-1.57-2.29-3.09-2.16-4.55,.13-1.46,.88-2.87,2.24-4.23l1.44-1.44,2.86,2.86-.92,.92c-.58,.58-.87,1.1-.89,1.57-.02,.47,.24,.98,.79,1.52l1.52,1.52,8.39-8.39,13,13-3.36,3.36-10.2-10.2-5.03,5.03,10.2,10.2-3.35,3.35Zm-4.77-24.95c-.61,.61-1.3,.93-2.06,.96s-1.42-.24-1.98-.8-.82-1.21-.79-1.97c.04-.75,.36-1.43,.97-2.04s1.29-.93,2.04-.97c.75-.03,1.41,.23,1.97,.79s.83,1.22,.8,1.98-.34,1.45-.96,2.06Z"/>
        <path class="cls-1" d="M258.64,43.36c-1.31,1.31-2.75,2.19-4.32,2.65s-3.15,.46-4.74,.03c-1.59-.44-3.05-1.32-4.38-2.65s-2.26-2.83-2.74-4.44c-.48-1.62-.51-3.22-.09-4.81,.42-1.59,1.31-3.07,2.67-4.43,1.28-1.28,2.68-2.12,4.22-2.54,1.54-.42,3.07-.42,4.59,0,1.52,.42,2.87,1.22,4.06,2.41,.19,.19,.39,.4,.59,.62,.2,.22,.41,.45,.62,.69l-9.88,9.88c1.08,.94,2.23,1.39,3.45,1.32s2.28-.55,3.19-1.45c.68-.68,1.1-1.41,1.26-2.18,.16-.77,.11-1.51-.16-2.23l3.41-3.41c.58,1.07,.92,2.22,1.02,3.46,.1,1.24-.07,2.47-.51,3.68-.45,1.21-1.19,2.35-2.24,3.39Zm-10.88-10.93c-.82,.82-1.31,1.78-1.48,2.87s.13,2.2,.9,3.32l6.47-6.47c-.91-.8-1.9-1.17-2.99-1.1-1.08,.07-2.05,.53-2.91,1.39Zm-4.4-2.52l-2.36-2.36,2.73-9.12,2.73,2.73-3.09,8.75Z"/>
      </g>
    </g>
  </g>
</svg>